<svg width="396" height="133.6624685138539" viewBox="0 0 397 134" class="looka-1j8o68f">
    <defs id="SvgjsDefs16781"></defs>
    <g id="SvgjsG16782" featurekey="rootContainer" transform="matrix(1,0,0,1,0,0)" fill="#ffffff">
        <rect xmlns="http://www.w3.org/2000/svg" width="397" height="134" rx="10" ry="10"></rect>
    </g>
    <g id="SvgjsG16783" featurekey="4K7G0D-0" transform="matrix(1.0995847211896108,0,0,1.0995847211896108,9.2559577899263,11.78610183909281)" fill="#018b25">
        <path xmlns="http://www.w3.org/2000/svg" d="M47.495,62.192c-5.268-2.254-10.214-4.752-14.785-7.483c-1.702,1.702-4.004,2.764-6.545,2.764  c-0.526,0-1.033-0.075-1.537-0.162c-3.598,6.751-5.429,13.429-5.474,19.973c1.661,2.097,3.509,4.018,5.518,5.743  c7.979-2.768,16.039-7.675,23.873-14.618c-0.739-1.403-1.196-2.986-1.196-4.696C47.349,63.191,47.42,62.691,47.495,62.192z"></path>
        <path xmlns="http://www.w3.org/2000/svg" d="M16.695,47.617c0-1.435,0.312-2.789,0.844-4.02c-2.16-1.965-4.168-3.995-5.998-6.09C10.395,41.459,9.771,45.651,9.771,50  c0,7.493,1.848,14.523,5.064,20.638c0.851-5.139,2.673-10.31,5.366-15.43C18.079,53.399,16.695,50.688,16.695,47.617z"></path>
        <path xmlns="http://www.w3.org/2000/svg" d="M48.771,16.689c2.771,0,5.245,1.268,6.978,3.249c4.172-2.608,8.57-5.103,13.221-7.439C63.315,9.296,56.862,7.47,50.001,7.47  c-7.941,0-15.322,2.465-21.558,6.662c4.562,1.859,8.945,3.885,13.179,6.023C43.359,18.052,45.903,16.689,48.771,16.689z"></path>
        <path xmlns="http://www.w3.org/2000/svg" d="M57.771,29.458c5.068,3.328,9.793,6.843,14.107,10.518c3.301-5.372,6.357-11.074,9.131-17.068  c-2.145-2.739-4.633-5.155-7.352-7.253c-5.566,2.684-10.807,5.576-15.686,8.642c0.162,0.726,0.27,1.472,0.27,2.248  C58.241,27.565,58.048,28.531,57.771,29.458z"></path>
        <path xmlns="http://www.w3.org/2000/svg" d="M48.771,36.398c-1.918,0-3.7-0.605-5.193-1.631c-3.261,2.766-6.253,5.62-8.929,8.56c0.61,1.303,0.984,2.746,0.984,4.29  c0,1.158-0.228,2.255-0.582,3.288c4.347,2.588,9.021,4.989,14.048,7.134c1.717-2.522,4.526-4.184,7.718-4.184  c1.596,0,3.08,0.452,4.402,1.183c2.875-3.54,5.639-7.288,8.25-11.267c-4.232-3.625-8.889-7.101-13.904-10.39  C53.841,35.235,51.438,36.398,48.771,36.398z"></path>
        <path xmlns="http://www.w3.org/2000/svg" d="M72.935,46.858c-2.637,3.978-5.414,7.741-8.311,11.292c1.047,1.584,1.664,3.498,1.664,5.562  c0,0.118-0.031,0.229-0.035,0.346c6.35,1.805,13.016,3.28,19.961,4.37c0.615-1.346,1.162-2.727,1.643-4.146  C83.94,58.279,78.933,52.418,72.935,46.858z"></path>
        <path xmlns="http://www.w3.org/2000/svg" d="M56.817,73.564c-1.951,0-3.766-0.619-5.275-1.676c-7.334,6.49-14.89,11.322-22.45,14.396  c6.099,3.936,13.24,6.245,20.909,6.245c14.316,0,26.854-7.932,33.982-19.841c-6.555-1.096-12.859-2.541-18.898-4.271  C63.474,71.47,60.392,73.564,56.817,73.564z"></path>
        <path xmlns="http://www.w3.org/2000/svg" d="M83.995,27.328c-2.65,5.503-5.533,10.761-8.623,15.738C80.8,48.054,85.509,53.283,89.39,58.66  c0.549-2.796,0.84-5.691,0.84-8.66C90.229,41.655,87.923,33.896,83.995,27.328z"></path>
        <path xmlns="http://www.w3.org/2000/svg" d="M31.517,39.502c2.69-2.901,5.654-5.726,8.881-8.457c-0.676-1.356-1.095-2.872-1.095-4.501c0-0.808,0.119-1.579,0.296-2.33  c-4.906-2.458-10.047-4.745-15.4-6.829c-4.651,4.118-8.391,9.335-10.902,15.263c2.033,2.55,4.37,4.999,6.93,7.359  c1.63-1.381,3.679-2.243,5.939-2.243C28.151,37.764,29.992,38.409,31.517,39.502z"></path>
        <circle xmlns="http://www.w3.org/2000/svg" cx="25.884" cy="47.311" r="4.675"></circle>
        <circle xmlns="http://www.w3.org/2000/svg" cx="48.984" cy="26.41" r="4.675"></circle>
        <circle xmlns="http://www.w3.org/2000/svg" cx="56.547" cy="63.673" r="4.675"></circle>
    </g>
    <g id="SvgjsG16784" featurekey="Li3fkV-0" transform="matrix(0.4854402332672045,0,0,0.4854402332672045,127.6116479522718,84.00969555285153)" fill="#ffffff">
        <path d="M9.08 20.3 c-2.26 0 -4.2 -0.8 -5.82 -2.38 c-1.64 -1.58 -2.46 -3.5 -2.46 -5.72 s0.82 -4.14 2.46 -5.72 c1.62 -1.58 3.56 -2.38 5.82 -2.38 c2.28 0 4.24 0.8 5.86 2.38 c1.22 1.18 1.98 2.56 2.26 4.1 l-4.18 0 c-0.2 -0.52 -0.52 -1 -0.92 -1.4 c-0.82 -0.82 -1.82 -1.22 -3.02 -1.22 c-1.18 0 -2.18 0.42 -3 1.24 s-1.24 1.82 -1.24 3 s0.42 2.18 1.24 3 s1.82 1.24 3 1.24 c1.2 0 2.2 -0.42 3.02 -1.24 c0.56 -0.56 0.92 -1.18 1.1 -1.92 l4.08 0 c-0.22 1.78 -0.98 3.32 -2.34 4.64 c-1.62 1.58 -3.58 2.38 -5.86 2.38 z M33.808 20 l0 -15.6 l6.88 0 c1.96 0 3.48 0.5 4.54 1.5 c1.06 1.02 1.58 2.28 1.58 3.74 c0 1.54 -0.52 2.82 -1.58 3.82 c-0.34 0.32 -0.72 0.58 -1.14 0.8 l3.12 5.74 l-3.78 0 l-2.74 -5.02 l-2.88 0 l0 5.02 l-4 0 z M37.808 11.78 l2.66 0 c1.54 0 2.3 -0.7 2.3 -2.12 c0 -0.6 -0.18 -1.08 -0.56 -1.48 s-0.96 -0.58 -1.74 -0.58 l-2.66 0 l0 4.18 z M63.736000000000004 20 l0 -15.6 l11.98 0 l0 3.88 l-7.98 0 l0 2.24 l5.62 0 l0 3.62 l-5.62 0 l0 2 l7.98 0 l0 3.86 l-11.98 0 z M92.24400000000001 20 l6.32 -15.6 l3.96 0 l6.3 15.6 l-4.36 0 l-1.26 -3.48 l-5.3 0 l-1.3 3.48 l-4.36 0 z M99.14400000000002 13.280000000000001 l2.78 -0.02 l-1.38 -3.74 z M130.21200000000002 20 l0 -11.72 l-4.86 0 l0 -3.88 l13.72 0 l0 3.88 l-4.86 0 l0 11.72 l-4 0 z M155.60000000000002 20 l0 -15.6 l4 0 l0 15.6 l-4 0 z M182.428 20 l-6.3 -15.6 l4.36 0 l3.92 10.48 l3.94 -10.48 l4.36 0 l-6.32 15.6 l-3.96 0 z M209.23600000000002 20 l0 -15.6 l11.98 0 l0 3.88 l-7.98 0 l0 2.24 l5.62 0 l0 3.62 l-5.62 0 l0 2 l7.98 0 l0 3.86 l-11.98 0 z M259.672 20 l0 -15.6 l7.24 0 c1.58 0 2.92 0.36 4.06 1.08 s1.98 1.66 2.52 2.82 s0.8 2.46 0.8 3.9 c0 1.46 -0.26 2.76 -0.8 3.92 s-1.38 2.1 -2.52 2.8 c-1.14 0.72 -2.48 1.08 -4.06 1.08 l-7.24 0 z M263.672 16.14 l2.94 0 c1.16 0 2.06 -0.36 2.7 -1.08 c0.62 -0.7 0.94 -1.66 0.94 -2.86 s-0.32 -2.16 -0.94 -2.86 c-0.64 -0.7 -1.54 -1.06 -2.7 -1.06 l-2.94 0 l0 7.86 z M290.82000000000005 20 l0 -15.6 l11.98 0 l0 3.88 l-7.98 0 l0 2.24 l5.62 0 l0 3.62 l-5.62 0 l0 2 l7.98 0 l0 3.86 l-11.98 0 z M325.62800000000004 20 l-6.3 -15.6 l4.36 0 l3.92 10.48 l3.94 -10.48 l4.36 0 l-6.32 15.6 l-3.96 0 z M352.43600000000004 20 l0 -15.6 l11.98 0 l0 3.88 l-7.98 0 l0 2.24 l5.62 0 l0 3.62 l-5.62 0 l0 2 l7.98 0 l0 3.86 l-11.98 0 z M380.944 20 l0 -15.6 l3.98 0 l0 11.74 l7.48 0 l0 3.86 l-11.46 0 z M417.212 20.3 c-2.26 0 -4.2 -0.8 -5.82 -2.38 c-1.64 -1.58 -2.46 -3.5 -2.46 -5.72 s0.82 -4.14 2.46 -5.72 c1.62 -1.58 3.56 -2.38 5.82 -2.38 c2.28 0 4.24 0.8 5.86 2.38 s2.42 3.5 2.42 5.72 s-0.8 4.14 -2.42 5.72 s-3.58 2.38 -5.86 2.38 z M417.212 16.44 c1.2 0 2.2 -0.42 3.02 -1.24 s1.22 -1.82 1.22 -3 s-0.4 -2.2 -1.22 -3.02 s-1.82 -1.22 -3.02 -1.22 c-1.18 0 -2.18 0.42 -3 1.24 s-1.24 1.82 -1.24 3 s0.42 2.18 1.24 3 s1.82 1.24 3 1.24 z M442.02000000000004 20 l0 -15.6 l6.88 0 c1.96 0 3.48 0.5 4.54 1.5 c1.06 1.02 1.58 2.28 1.58 3.74 c0 1.54 -0.52 2.82 -1.58 3.82 s-2.56 1.52 -4.54 1.52 l-2.88 0 l0 5.02 l-4 0 z M446.02000000000004 11.78 l2.66 0 c1.54 0 2.3 -0.7 2.3 -2.12 c0 -0.6 -0.18 -1.08 -0.56 -1.48 s-0.96 -0.58 -1.74 -0.58 l-2.66 0 l0 4.18 z M471.54800000000006 20 l0 -15.6 l11.98 0 l0 3.88 l-7.98 0 l0 2.24 l5.62 0 l0 3.62 l-5.62 0 l0 2 l7.98 0 l0 3.86 l-11.98 0 z M500.05600000000004 20 l0 -15.6 l6.88 0 c1.96 0 3.48 0.5 4.54 1.5 c1.06 1.02 1.58 2.28 1.58 3.74 c0 1.54 -0.52 2.82 -1.58 3.82 c-0.34 0.32 -0.72 0.58 -1.14 0.8 l3.12 5.74 l-3.78 0 l-2.74 -5.02 l-2.88 0 l0 5.02 l-4 0 z M504.05600000000004 11.78 l2.66 0 c1.54 0 2.3 -0.7 2.3 -2.12 c0 -0.6 -0.18 -1.08 -0.56 -1.48 s-0.96 -0.58 -1.74 -0.58 l-2.66 0 l0 4.18 z"></path>
    </g>
    <g id="SvgjsG16785" featurekey="nameLeftFeature-0" transform="matrix(1.0845538059713022,0,0,1.0845538059713022,127.24797049271571,33.82536384970339)" fill="#ffffff">
        <path d="M6.5137 20.19531 c-3.0273 0 -5.3906 -1.4551 -5.8203 -4.1016 l3.0273 -0.69336 c0.19531 1.582 1.3574 2.4023 2.9102 2.4023 c1.1914 0 2.1387 -0.52734 2.1289 -1.7188 c-0.0097656 -1.3281 -1.5723 -1.748 -3.291 -2.2754 c-2.0703 -0.64453 -4.2871 -1.4063 -4.2871 -4.0039 c0 -2.627 2.1484 -4.1113 4.9805 -4.1113 c2.4805 0 4.9805 1.0059 5.5469 3.7109 l-2.832 0.70313 c-0.26367 -1.4063 -1.2109 -2.0215 -2.5391 -2.0215 c-1.1816 0 -2.1875 0.48828 -2.1875 1.6504 c0 1.084 1.3867 1.4453 2.9883 1.9238 c2.1289 0.64453 4.6484 1.4648 4.6484 4.2773 c0 2.998 -2.5098 4.2578 -5.2734 4.2578 z M23.936015625 20 l-1.0254 -2.9102 l-5.9277 0 l-1.0254 2.9102 l-2.998 0 l5.1953 -14.111 l3.584 0 l5.1953 14.111 l-2.998 0 z M17.841815625 14.6387 l4.209 0 l-2.0996 -5.9863 z M37.9495625 5.888999999999999 l2.9297 0 l0 14.111 l-2.9297 0 l0 -5.8008 l-5.9668 0 l0 5.8008 l-2.9297 0 l0 -14.111 l2.9297 0 l0 5.7617 l5.9668 0 l0 -5.7617 z M51.982378125 20 l-3.6719 -6.2109 l-0.84961 0 l0 6.2109 l-2.9297 0 l0 -14.111 l5.1172 0 c3.1934 0 4.541 1.8848 4.541 4.2188 c0 1.8945 -1.0742 3.125 -2.9883 3.5352 l4.248 6.3574 l-3.4668 0 z M47.460978125 8.32 l0 3.3691 l1.7285 0 c1.5625 0 2.1973 -0.66406 2.1973 -1.6797 c0 -1.0059 -0.63477 -1.6895 -2.1973 -1.6895 l-1.7285 0 z M67.041484375 20 l-1.0254 -2.9102 l-5.9277 0 l-1.0254 2.9102 l-2.998 0 l5.1953 -14.111 l3.584 0 l5.1953 14.111 l-2.998 0 z M60.947284375 14.6387 l4.209 0 l-2.0996 -5.9863 z M78.40823125 20.19531 c-4.1504 0 -7.2168 -2.832 -7.2168 -7.2559 c0 -4.4336 3.0664 -7.2461 7.2168 -7.2461 c4.1406 0 7.207 2.8125 7.207 7.2461 c0 4.4238 -3.0664 7.2559 -7.207 7.2559 z M78.40823125 17.5098 c2.4316 0 4.2969 -1.709 4.2969 -4.5703 c0 -2.8516 -1.8652 -4.5508 -4.2969 -4.5508 s-4.2969 1.6992 -4.2969 4.5508 c0 2.8613 1.8652 4.5703 4.2969 4.5703 z M93.535175 20.19531 c-3.0957 0 -5.5176 -1.582 -5.5176 -5.1367 l0 -9.1699 l2.9297 0 l0 8.7695 c0 2.1484 1.1426 2.9492 2.5879 2.9492 c1.4551 0 2.6074 -0.81055 2.6074 -2.9492 l0 -8.7695 l2.9297 0 l0 9.1699 c0 3.5547 -2.4316 5.1367 -5.5371 5.1367 z M102.43166875 20 l0 -14.111 l2.9297 0 l0 14.111 l-2.9297 0 z"></path>
    </g>
    <g id="SvgjsG16786" featurekey="nameRightFeature-0" transform="matrix(0.9708802379162599,0,0,0.9708802379162599,254.42713395907248,36.0193962096032)" fill="#ffffff">
        <path d="M16.08 20.3 c-2.26 0 -4.2 -0.8 -5.82 -2.38 c-1.64 -1.58 -2.46 -3.5 -2.46 -5.72 s0.82 -4.14 2.46 -5.72 c1.62 -1.58 3.56 -2.38 5.82 -2.38 c2.28 0 4.24 0.8 5.86 2.38 s2.42 3.5 2.42 5.72 s-0.8 4.14 -2.42 5.72 s-3.58 2.38 -5.86 2.38 z M16.08 16.44 c1.2 0 2.2 -0.42 3.02 -1.24 s1.22 -1.82 1.22 -3 s-0.4 -2.2 -1.22 -3.02 s-1.82 -1.22 -3.02 -1.22 c-1.18 0 -2.18 0.42 -3 1.24 s-1.24 1.82 -1.24 3 s0.42 2.18 1.24 3 s1.82 1.24 3 1.24 z M33.12 20 c-2.26 0 -4.02 -0.64 -5.28 -1.96 c-1.26 -1.3 -1.88 -2.96 -1.88 -5.02 l0 -8.62 l4 0 l0 8.38 c0 1.12 0.26 1.96 0.8 2.54 c0.54 0.6 1.32 0.9 2.36 0.9 s1.84 -0.3 2.38 -0.9 c0.54 -0.58 0.82 -1.42 0.82 -2.54 l0 -8.38 l3.98 0 l0 8.62 c0 2.04 -0.64 3.7 -1.9 5.02 s-3.02 1.96 -5.28 1.96 z M48.54 20.3 c-1.94 0 -3.52 -0.42 -4.76 -1.28 s-1.86 -2.02 -1.86 -3.52 l0 -0.18 l-0.02 -0.8 l3.92 0 l0 0.9 c0 0.34 0.24 0.66 0.7 0.96 s1.1 0.46 1.94 0.46 c0.7 0 1.2 -0.1 1.52 -0.28 c0.3 -0.18 0.46 -0.42 0.46 -0.68 c0 -0.32 -0.2 -0.6 -0.58 -0.84 c-0.4 -0.24 -1.1 -0.52 -2.08 -0.86 c-0.62 -0.22 -1.14 -0.4 -1.56 -0.56 s-0.92 -0.4 -1.5 -0.72 c-0.58 -0.3 -1.06 -0.64 -1.4 -0.98 s-0.64 -0.76 -0.9 -1.28 s-0.38 -1.08 -0.38 -1.7 c0 -1.46 0.56 -2.64 1.7 -3.52 s2.6 -1.32 4.4 -1.32 c1.86 0 3.38 0.46 4.58 1.38 s1.8 2.14 1.8 3.66 l0 0.98 l-3.9 0 l0 -0.9 c0 -0.42 -0.2 -0.82 -0.62 -1.16 s-1.02 -0.5 -1.78 -0.5 c-0.62 0 -1.1 0.1 -1.42 0.3 c-0.32 0.22 -0.48 0.46 -0.48 0.76 s0.18 0.54 0.54 0.74 c0.36 0.22 1.04 0.5 2.04 0.84 l1.02 0.36 l1.08 0.44 c0.46 0.22 0.84 0.4 1.12 0.58 s0.6 0.42 0.98 0.72 s0.66 0.62 0.88 0.92 c0.2 0.3 0.38 0.68 0.54 1.1 c0.14 0.42 0.22 0.88 0.22 1.34 c0 1.48 -0.58 2.62 -1.72 3.42 c-1.14 0.82 -2.64 1.22 -4.48 1.22 z M62.98 20.3 c-1.94 0 -3.52 -0.42 -4.76 -1.28 s-1.86 -2.02 -1.86 -3.52 l0 -0.18 l-0.02 -0.8 l3.92 0 l0 0.9 c0 0.34 0.24 0.66 0.7 0.96 s1.1 0.46 1.94 0.46 c0.7 0 1.2 -0.1 1.52 -0.28 c0.3 -0.18 0.46 -0.42 0.46 -0.68 c0 -0.32 -0.2 -0.6 -0.58 -0.84 c-0.4 -0.24 -1.1 -0.52 -2.08 -0.86 c-0.62 -0.22 -1.14 -0.4 -1.56 -0.56 s-0.92 -0.4 -1.5 -0.72 c-0.58 -0.3 -1.06 -0.64 -1.4 -0.98 s-0.64 -0.76 -0.9 -1.28 s-0.38 -1.08 -0.38 -1.7 c0 -1.46 0.56 -2.64 1.7 -3.52 s2.6 -1.32 4.4 -1.32 c1.86 0 3.38 0.46 4.58 1.38 s1.8 2.14 1.8 3.66 l0 0.98 l-3.9 0 l0 -0.9 c0 -0.42 -0.2 -0.82 -0.62 -1.16 s-1.02 -0.5 -1.78 -0.5 c-0.62 0 -1.1 0.1 -1.42 0.3 c-0.32 0.22 -0.48 0.46 -0.48 0.76 s0.18 0.54 0.54 0.74 c0.36 0.22 1.04 0.5 2.04 0.84 l1.02 0.36 l1.08 0.44 c0.46 0.22 0.84 0.4 1.12 0.58 s0.6 0.42 0.98 0.72 s0.66 0.62 0.88 0.92 c0.2 0.3 0.38 0.68 0.54 1.1 c0.14 0.42 0.22 0.88 0.22 1.34 c0 1.48 -0.58 2.62 -1.72 3.42 c-1.14 0.82 -2.64 1.22 -4.48 1.22 z M70.78 20 l6.32 -15.6 l3.96 0 l6.3 15.6 l-4.36 0 l-1.26 -3.48 l-5.3 0 l-1.3 3.48 l-4.36 0 z M77.68 13.280000000000001 l2.78 -0.02 l-1.38 -3.74 z M88.96 20 l0 -15.6 l4.02 0 l4.5 10.68 l4.52 -10.68 l4.02 0 l0 15.6 l-3.98 0 l0 -7.34 l-3.24 7.34 l-2.62 0 l-3.24 -7.34 l0 7.34 l-3.98 0 z M107.61999999999999 20 l6.32 -15.6 l3.96 0 l6.3 15.6 l-4.36 0 l-1.26 -3.48 l-5.3 0 l-1.3 3.48 l-4.36 0 z M114.52 13.280000000000001 l2.78 -0.02 l-1.38 -3.74 z"></path>
    </g>
</svg>